<?xml version="1.0" encoding="utf-8"?>
<!-- Generator: Adobe Illustrator 25.0.1, SVG Export Plug-In . SVG Version: 6.00 Build 0)  -->
<svg version="1.0" id="Layer_1" xmlns="http://www.w3.org/2000/svg" xmlns:xlink="http://www.w3.org/1999/xlink" x="0px" y="0px"
	 viewBox="0 0 968 587" style="enable-background:new 0 0 968 587;" xml:space="preserve">
<style type="text/css">
	.st0{fill:#1B1814;}
	.st1{fill:none;}
</style>
<path id="Shape" class="st0" d="M835.6,255.9c-8,20.4-15.8,40.9-23.9,61.3c-0.1,0.3-0.2,0.6-0.3,0.9c-0.3,0.7-0.6,1.4-1,2.1
	c-0.4,0.9-1.4,1.5-2.4,1.3c-0.7,0-1.2-1.1-1.2-1.1l-1.8-3.6c-8.5-19.1-16.8-38.4-25.3-57.5c-4.2-9.5-1.9-8.4-13-8.4
	c-2.4,0-4.9-0.2-7.3,0c-2.7,0.2-3.5,1.6-2.5,4.2c0.6,1.7,1.4,3.4,2.2,5.1c12.4,27,24.7,54.1,37.5,81c2.4,5,1.6,8.6-1,12.9
	c-4,6.5-9.7,9.1-17.1,8c-2.4-0.4-4.7-1.1-7-2c-5-1.8-5.3-1.8-7.5,3.2c-0.8,1.9-1.5,3.8-2.4,5.6c-2.3,4.5-0.6,5.5,3.2,7
	c5.9,2.3,12.2,3.5,18.6,3.5c11.3,0.1,19.8-4.7,26-13.7c3-4.5,5.5-9.3,7.5-14.3c8.9-21.7,17.8-43.3,26.7-65c4-9.6,7.9-19.3,11.8-28.9
	c2.4-5.9,1.8-6.6-4.7-6.7c-2.4,0-4.9,0-7.3,0C837.7,250.8,837.6,250.8,835.6,255.9z M697,284.2c-6.1-4.4-6-11.5,0.5-15.5
	c3.7-2.2,8.1-3.2,12.4-2.8c7.3,0.6,14.4,2.7,20.8,6.3c1.1,0.6,2.3,1.3,3.5,1.8c2.2,1,4,0.7,5.3-1.5s2.8-4.4,4.1-6.7
	c2.4-4.1,2.1-5.3-2-7.6c-9.9-5.5-20.4-9.1-32-8.7c-1.9,0-3.8-0.1-5.6,0c-8.7,0.4-16.9,4.1-22.8,10.5c-10,10.7-10.9,30.9,5.8,40.1
	c3.9,2.2,8,4,12.2,5.3c4.1,1.3,8.3,2.3,12.4,3.6c4.4,1.4,9,2.6,12.9,5.4c5.5,4,6.2,10.5,1.5,15.4c-2.8,3-6.5,4.2-10.5,4.5
	c-10.7,0.9-21.4-2-30.2-8.1c-8-5.4-7.5-3-11.3,2.1c-5.7,7.7-5.5,8.2,2.9,13.3c11.7,7.2,25.4,10.6,39.1,9.7
	c8.5-0.4,16.6-3.7,22.8-9.4c10.3-9.5,12.1-27.9,2.4-37.8c-4-4.1-8.9-6.8-14.1-8.9c-6.6-2.7-13.5-4.3-20.2-6.6
	C703.2,287.6,700,286.1,697,284.2z M630.9,278.3c7.2-7.3,14.4-14.6,21.6-21.9c1-1,2.6-1.9,1.8-3.7s-2.5-2-4.3-2
	c-4.1,0-8.2,0.2-12.4-0.1c-2.8-0.2-5.5,1-7.3,3.1c-12.8,13.5-25.8,27-38.8,40.3c-1.2,1.3-2.5,3.8-4.2,3.2c-0.5-0.1-0.9-0.4-1.1-0.9
	v-4.6c-0.1-24-0.1-48-0.1-71.9c0-1.3,0.1-2.6,0-3.9c-0.2-2.9-1.3-4.2-4.1-4.3c-3.9-0.2-7.9-0.1-11.8,0c-1.7-0.1-3.3,1.2-3.4,2.9
	c0,0.2,0,0.4,0,0.7c0,1.5,0,3,0,4.5c0,20.3,0,40.5,0,60.8c0,12.1,0,24.2,0,36.2c0,9.5,0,19,0,28.4c0,4,0.7,4.7,4.4,4.8
	c3.4,0.1,6.8,0.1,10.1,0c3.5-0.1,4.6-1.2,4.7-4.8l0.1-1.9c0.1-2,0.1-4,0-6v-4.7c-0.2-2.4,0-4.8,0.6-7.2c0.4-1.3,1-2.5,1.6-3.7
	c1.6-2.3,5.9-6.7,9.3-10c5.1-4.7,4.2-5.2,10.7,3.2c8.1,10.5,16.3,20.9,24.3,31.4c2,2.7,4.3,3.9,7.6,3.6c3-0.2,6,0,9,0
	c2.2,0,4.9,0.6,6-1.9s-1.2-4-2.5-5.7c-11.5-15.1-23.1-30.2-34.6-45.3c-2.4-3.1-2.4-3.4,0.2-6.1C622.6,286.9,626.7,282.6,630.9,278.3
	L630.9,278.3z M496.1,352.1c34.3-0.1,52.7-27.2,52-51.6c1.2-25.3-18.8-51.8-51.6-51.8c-31.5,0-52,24-52.1,51.6
	C444.3,328.4,464.7,352.2,496.1,352.1z M511.5,330.8c-18,9.7-41,0.4-46.6-21.5c-2.5-9.3-1.2-19.2,3.8-27.4
	c5.5-9.4,13.9-14.5,25.1-15.4c22.1-1.7,35.8,18.1,35,34.5C528.3,313.8,523.4,324.4,511.5,330.8z M375.1,352.1
	c32.5,0.2,52.7-24.5,52.5-51.6c0.4-26.4-19.6-51.7-51.8-51.7c-32.4,0-52,25.9-52,51.7C323.8,326.6,342.9,351.9,375.1,352.1z
	 M351.7,323.4c-12.3-14.2-10.9-37,2.6-49c6.2-5.5,13.2-8.3,19.8-7.9c13.6-0.1,22.5,5.2,28.8,15c8.4,13.3,7.1,30.6-3.2,42.6
	c-11.7,13.1-31.8,14.2-44.9,2.5C353.7,325.5,352.6,324.5,351.7,323.4z M228.7,249.4v-6.7c0-8.5,0-17.1,0-25.6c0-6.6-1-7.5-7.4-7.6
	c-1.9,0-3.8,0-5.6,0c-6.1,0.1-6.5,0.4-6.5,6.2c0,12.8,0,25.7,0,38.5s0,25.7,0,38.5c0,2.2-0.4,4.6,1.7,6.2c4.1,3.2,8.5,6.1,13.1,8.6
	c2.5,1.3,4.3,0.2,4.6-2.9c0.2-2.6,0.3-5.2,0.1-7.8c-0.3-6.2,1.7-11.7,5-16.8c11.5-17.9,36.2-18.7,48.8-1.8c6.7,9,7.8,19.1,6.2,29.7
	c-1.2,7.9-5.5,14.1-12,18.7c-11.1,8-23.4,8.4-35.9,4.9c-11.9-3.3-22.1-10-32-17c-7.3-5.2-14.3-10.7-21.6-16
	c-12.3-9-26.1-12-40.9-8.6c-16,3.7-27.4,13.2-33.9,28.2c-1.9,4.5-0.7,6.2,4.2,6.3c4.1,0.1,8.2-0.1,12.4,0c2.8,0.1,4.7-0.9,5.8-3.5
	c0.4-0.8,0.8-1.7,1.3-2.4c5.2-8.8,15.7-13,25.6-10.2c4.5,1.2,8.8,3.1,12.8,5.6c9,5.7,17.6,12,26.2,18.3
	c17.3,12.9,35.8,22.1,58.4,20.2c15.4-1.3,28.2-6.9,38.1-18.6c7.9-9.3,11.4-20.2,11.5-32.4c0.1-10.9-1.8-21-7.4-30.4
	c-9.5-15.7-23.9-24-42-24.7c-8.7-0.2-17.2,2-24.6,6.5C228.7,256.5,228.6,256.4,228.7,249.4L228.7,249.4z"/>
<rect x="84" y="180" class="st1" width="800" height="227"/>
</svg>
