<?xml version="1.0" encoding="UTF-8" standalone="no"?>
<!-- Created with Inkscape (http://www.inkscape.org/) -->

<svg
   width="60cm"
   height="60cm"
   viewBox="0 0 600 600"
   version="1.1"
   id="svg5"
   xml:space="preserve"
   inkscape:version="1.2.2 (732a01da63, 2022-12-09)"
   sodipodi:docname="BLUEPRINT.svg"
   xmlns:inkscape="http://www.inkscape.org/namespaces/inkscape"
   xmlns:sodipodi="http://sodipodi.sourceforge.net/DTD/sodipodi-0.dtd"
   xmlns="http://www.w3.org/2000/svg"
   xmlns:svg="http://www.w3.org/2000/svg"><sodipodi:namedview
     id="namedview7"
     pagecolor="#ffffff"
     bordercolor="#000000"
     borderopacity="0.25"
     inkscape:showpageshadow="2"
     inkscape:pageopacity="0.0"
     inkscape:pagecheckerboard="0"
     inkscape:deskcolor="#d1d1d1"
     inkscape:document-units="mm"
     showgrid="false"
     showguides="true"
     inkscape:zoom="0.25"
     inkscape:cx="1146"
     inkscape:cy="1168"
     inkscape:window-width="1920"
     inkscape:window-height="1009"
     inkscape:window-x="-8"
     inkscape:window-y="-8"
     inkscape:window-maximized="1"
     inkscape:current-layer="layer1" /><defs
     id="defs2" /><g
     inkscape:label="Layer 1"
     inkscape:groupmode="layer"
     id="layer1"><rect
       style="opacity:1;fill:#000000;stroke:none;stroke-width:5.34838;stroke-linecap:square;stroke-linejoin:miter;stroke-miterlimit:4;stroke-dasharray:none;paint-order:stroke fill markers"
       id="rect6324"
       width="600"
       height="600"
       x="2.0566627e-06"
       y="0.00090820371" /><g
       id="path4439"
       style="font-size:46.3656px;font-family:'Century Gothic';-inkscape-font-specification:'Century Gothic';fill:#ff0000;stroke:#ff0000;stroke-width:2.12694;stroke-linecap:square" /><g
       id="path4441"
       style="font-size:46.3656px;font-family:'Century Gothic';-inkscape-font-specification:'Century Gothic';fill:#ff0000;stroke:#ff0000;stroke-width:2.12694;stroke-linecap:square" /><g
       id="path4443"
       style="font-size:46.3656px;font-family:'Century Gothic';-inkscape-font-specification:'Century Gothic';fill:#ff0000;stroke:#ff0000;stroke-width:2.12694;stroke-linecap:square" /><g
       id="path4445"
       style="font-size:46.3656px;font-family:'Century Gothic';-inkscape-font-specification:'Century Gothic';fill:#ff0000;stroke:#ff0000;stroke-width:2.12694;stroke-linecap:square" /><g
       id="path4447"
       style="font-size:46.3656px;font-family:'Century Gothic';-inkscape-font-specification:'Century Gothic';fill:#ff0000;stroke:#ff0000;stroke-width:2.12694;stroke-linecap:square" /><g
       id="path4449"
       style="font-size:46.3656px;font-family:'Century Gothic';-inkscape-font-specification:'Century Gothic';fill:#ff0000;stroke:#ff0000;stroke-width:2.12694;stroke-linecap:square" /><g
       id="path4451"
       style="font-size:46.3656px;font-family:'Century Gothic';-inkscape-font-specification:'Century Gothic';fill:#ff0000;stroke:#ff0000;stroke-width:2.12694;stroke-linecap:square" /><g
       id="path4453"
       style="font-size:46.3656px;font-family:'Century Gothic';-inkscape-font-specification:'Century Gothic';fill:#ff0000;stroke:#ff0000;stroke-width:2.12694;stroke-linecap:square" /><g
       id="g6322"
       transform="matrix(1.699511,0,0,1.699511,196.41608,96.981243)"
       style="fill:#ffffff"><path
         id="path4662"
         style="font-size:46.3656px;font-family:'Century Gothic';-inkscape-font-specification:'Century Gothic';fill:#ffffff;stroke-width:2.44598;stroke-linecap:square"
         d="m -51.789087,101.08582 v 1.06453 34.36535 h 10.209196 c 3.488646,0 6.421251,-1.00621 8.585523,-3.05305 h 0.0021 c 2.147071,-2.03145 3.275769,-4.63258 3.275769,-7.56439 0,-1.45158 -0.299223,-2.82802 -0.892969,-4.08761 -0.574885,-1.26618 -1.398138,-2.36065 -2.451013,-3.24424 -0.667056,-0.56935 -1.733337,-0.95825 -2.677873,-1.40044 0.825751,-0.65867 1.561522,-1.38762 2.088245,-2.26549 l 0.0016,-0.004 0.0021,-0.002 c 0.820354,-1.38435 1.23455,-2.94079 1.23455,-4.59352 0,-1.76743 -0.475386,-3.42899 -1.408183,-4.89066 -0.921539,-1.46764 -2.22428,-2.58342 -3.822506,-3.28145 -1.642508,-0.73254 -3.793925,-1.04283 -6.517431,-1.04283 z m 5.386751,5.38675 h 2.78536 c 2.190803,0 3.63102,0.43928 4.392497,1.07022 l 0.0057,0.004 0.0062,0.006 c 0.832483,0.66834 1.210779,1.47296 1.210779,2.74816 0,0.93192 -0.245381,1.72985 -0.765845,2.49959 -0.516294,0.74896 -1.185813,1.28101 -2.095479,1.64847 -0.850638,0.32951 -2.460331,0.56069 -4.701005,0.56069 h -0.838192 z m 0,14.01568 h 0.814421 c 2.772029,0 4.721769,0.15174 5.66012,0.37672 1.522995,0.36716 2.627827,1.01224 3.433899,1.93167 0.810435,0.9244 1.185457,1.92274 1.185457,3.17035 0,0.96818 -0.268412,1.82901 -0.853695,2.68149 l -0.0036,0.004 -0.0021,0.004 c -0.569574,0.84803 -1.294341,1.4457 -2.248442,1.85363 -0.884872,0.36432 -2.571502,0.61909 -4.929415,0.61909 h -3.056661 z" /><path
         id="path4613"
         style="font-size:46.3656px;font-family:'Century Gothic';-inkscape-font-specification:'Century Gothic';fill:#ffffff;stroke-width:2.44598;stroke-linecap:square"
         d="m -25.255823,101.08582 v 24.84499 l 0.253215,24.84448 v 2.73265 H 101.45892 v -5.00021 H -19.537309 l -0.241845,-47.42191 z" /><path
         id="path4615"
         style="font-size:46.3656px;font-family:'Century Gothic';-inkscape-font-specification:'Century Gothic';fill:#ffffff;stroke-width:2.6549;stroke-linecap:square"
         d="m -11.072963,101.08582 v 1.06453 20.10369 c 0,3.42005 0.203135,5.77995 0.775019,7.32978 3.11e-4,8.6e-4 0.0021,0.001 0.0025,0.002 3.66e-4,9.9e-4 -3.67e-4,0.003 0,0.004 0.8461226,2.33348 2.5664125,4.25917 5.0324515,5.66012 2.4830842,1.41064 5.46936767,2.10375 8.833882,2.10375 3.1453323,0 5.9397902,-0.75437 8.2122845,-2.26394 2.220738,-1.46371 3.770127,-3.24512 4.528353,-5.29115 0.753029,-1.99948 1.099517,-4.5013 1.099517,-7.54476 v -21.1677 h -6.426673 v 21.1677 c 0,2.59559 -0.173955,4.35218 -0.356764,4.93148 -0.334232,1.05284 -0.8443903,1.91153 -1.5208159,2.61328 -0.6802393,0.70568 -1.5103161,1.24936 -2.5424049,1.65467 -1.033968,0.40608 -2.0871482,0.60307 -3.2078378,0.60307 -1.2966743,0 -2.58630715,-0.25193 -3.91162597,-0.77928 -1.33020423,-0.54461 -2.23162413,-1.17422 -2.78897413,-1.85932 -0.5793133,-0.72655 -0.9764285,-1.65564 -1.1524836,-2.83755 l -0.00244,-0.014 -0.00244,-0.0134 c -0.068023,-0.3753 -0.1448976,-1.92776 -0.1448976,-4.29896 v -21.16822 z" /><path
         id="path4617"
         style="font-size:46.3656px;font-family:'Century Gothic';-inkscape-font-specification:'Century Gothic';fill:#ffffff;stroke-width:2.34911;stroke-linecap:square"
         d="m 25.086435,101.08582 v 1.06453 34.36535 h 19.440017 v -5.40846 h -14.40854 v -10.93731 h 14.40854 v -5.38676 h -14.40854 v -8.28683 h 14.532467 v -5.41052 z" /><path
         id="path4619"
         style="font-size:46.3656px;font-family:'Century Gothic';-inkscape-font-specification:'Century Gothic';fill:#ffffff;stroke-width:2.44598;stroke-linecap:square"
         d="m 51.025267,101.08582 v 1.06453 34.36535 h 5.454964 v -15.48433 h 1.314648 c 4.166512,0 6.991092,-0.15889 8.714714,-0.57257 v -0.002 h 0.0021 c 2.248933,-0.54171 4.106764,-1.63246 5.439461,-3.25562 l 0.0021,-0.002 0.0021,-0.002 c 1.344771,-1.6551 2.003496,-3.76496 2.003496,-6.17172 0,-2.39779 -0.6811,-4.50772 -2.058273,-6.16034 -1.345067,-1.62902 -3.125823,-2.73099 -5.222937,-3.24787 -1.559899,-0.38998 -4.120706,-0.53123 -7.95507,-0.53123 z m 5.454964,5.36556 h 4.824512 c 2.186986,0 3.727948,0.22325 4.448824,0.5116 l 0.0021,0.002 h 0.0041 c 0.796094,0.31362 1.398479,0.81099 1.894458,1.57975 l 0.0021,0.004 0.0036,0.002 c 0.495584,0.75577 0.730705,1.54952 0.730705,2.47478 0,0.95981 -0.240703,1.77561 -0.736389,2.54455 -3.51e-4,5.5e-4 3.52e-4,0.001 0,0.002 -0.48695,0.73972 -1.118048,1.25142 -1.986442,1.5999 -0.817817,0.31415 -2.400586,0.53879 -4.611088,0.53898 l -4.576465,-0.0548 z" /><path
         id="path4621"
         style="font-size:46.3656px;font-family:'Century Gothic';-inkscape-font-specification:'Century Gothic';fill:#ffffff;stroke-width:2.44598;stroke-linecap:square"
         d="m 76.699127,101.08582 v 1.06453 34.36535 h 5.453414 v -15.48433 h 0.31626 l 11.953278,15.48433 h 6.810431 L 89.138679,120.87893 c 1.90906,-0.14663 3.62038,-0.42241 4.94337,-1.00201 l 0.0041,-0.002 0.0041,-0.002 c 1.75313,-0.78474 3.1551,-1.97982 4.11293,-3.53519 0.96974,-1.55051 1.45159,-3.35828 1.45159,-5.33559 0,-2.37462 -0.70442,-4.48277 -2.10581,-6.15828 -1.38073,-1.6655 -3.22213,-2.77862 -5.39812,-3.27732 h -0.0021 c -1.52563,-0.3505 -4.02828,-0.48059 -7.754048,-0.48059 z m 5.453414,5.38675 h 4.800738 c 2.218,0 3.77846,0.2267 4.49585,0.51366 0.7846,0.31384 1.38623,0.80705 1.88309,1.56477 l 0.0021,0.004 0.0021,0.004 c 0.49178,0.73769 0.72657,1.518 0.72657,2.44326 0,0.96049 -0.23999,1.77978 -0.73639,2.5492 l -0.0021,0.002 c -0.47064,0.73613 -1.09615,1.24962 -1.98438,1.5999 h -0.0021 l -0.0021,0.002 c -0.81677,0.32671 -2.36437,0.55576 -4.5098,0.55655 l -4.673618,-0.0372 z" /><path
         id="path4623"
         style="font-size:46.3656px;font-family:'Century Gothic';-inkscape-font-specification:'Century Gothic';fill:#ffffff;stroke-width:2.44598;stroke-linecap:square"
         d="m 105.70431,101.08582 v 1.06453 34.36535 h 5.45496 v -35.42988 z" /><path
         id="path4625"
         style="font-size:46.3656px;font-family:'Century Gothic';-inkscape-font-specification:'Century Gothic';fill:#ffffff;stroke-width:2.55215;stroke-linecap:square"
         d="m 117.75974,99.708642 v 1.377178 35.42988 h 1.15858 4.90358 v -23.07042 l 24.80779,24.84447 v -37.20393 h -0.0868 -5.88801 -0.0868 l 0.0868,0.7984 v 22.33404 z"
         sodipodi:nodetypes="cccccccccccccc" /><path
         id="path4627"
         style="font-size:46.3656px;font-family:'Century Gothic';-inkscape-font-specification:'Century Gothic';fill:#ffffff;stroke-width:2.44598;stroke-linecap:square"
         d="m 153.06404,83.931828 v 4.999695 h 8.75812 V 136.5157 h 5.52318 V 88.931523 h 16.80879 v 59.576207 h -9.60975 v 5.00021 h 14.60997 V 83.931828 Z" /><g
         id="path4437"
         style="font-size:46.3656px;font-family:'Century Gothic';-inkscape-font-specification:'Century Gothic';fill:#ffffff;stroke:#ff0000;stroke-width:2.12694;stroke-linecap:square"><path
           style="color:#000000;-inkscape-font-specification:'Century Gothic';fill:#ffffff;stroke:none;stroke-linecap:butt;-inkscape-stroke:none"
           d="m -50.726193,102.15006 h 6.565441 q 3.961905,0 6.090013,0.95086 2.128109,0.92822 3.350639,2.87521 1.24517,1.94699 1.24517,4.32414 0,2.21866 -1.086693,4.05246 -1.086694,1.81115 -3.192163,2.94313 2.603537,0.88293 4.007183,2.08283 1.403646,1.17725 2.173387,2.87521 0.792381,1.67532 0.792381,3.64495 0,4.00718 -2.943129,6.79183 -2.920489,2.76202 -7.85589,2.76202 h -9.146339 z m 3.260081,3.26008 v 10.66319 h 1.901714 q 3.463837,0 5.093877,-0.63391 1.630041,-0.65654 2.580898,-2.03755 0.950857,-1.40365 0.950857,-3.1016 0,-2.28659 -1.607401,-3.57704 -1.584762,-1.31309 -5.071238,-1.31309 z m 0,14.01382 v 12.76866 h 4.120381 q 3.644952,0 5.342911,-0.70183 1.697959,-0.72446 2.716734,-2.2413 1.041415,-1.51685 1.041415,-3.28272 0,-2.21867 -1.448925,-3.87135 -1.448925,-1.65268 -3.984544,-2.26395 -1.697959,-0.40751 -5.908897,-0.40751 z"
           id="path4458" /></g><path
         id="path5188"
         style="color:#000000;opacity:1;fill:#ffffff;stroke-linecap:square;-inkscape-stroke:none;paint-order:stroke fill markers"
         d="m -67.255843,83.931828 v 2.499589 67.076523 h 31.326253 v -5.00021 H -62.255632 V 88.931523 H 141.60324 v -4.999695 z" /><text
         xml:space="preserve"
         style="font-style:normal;font-variant:normal;font-weight:normal;font-stretch:normal;font-size:10.5402px;font-family:'Century Gothic';-inkscape-font-specification:'Century Gothic';letter-spacing:3.02419px;opacity:1;fill:#ffffff;stroke:none;stroke-width:16.5986;stroke-linecap:square;stroke-linejoin:miter;stroke-miterlimit:4;stroke-dasharray:none;paint-order:stroke fill markers"
         x="106.9995"
         y="154.79314"
         id="text6175"><tspan
           sodipodi:role="line"
           id="tspan6173"
           style="font-style:normal;font-variant:normal;font-weight:normal;font-stretch:normal;font-family:'Century Gothic';-inkscape-font-specification:'Century Gothic';stroke:none;stroke-width:16.5987;fill:#ffffff"
           x="106.9995"
           y="154.79314">BARBERS</tspan></text></g></g></svg>
